<?xml version="1.0" encoding="UTF-8"?>
<!DOCTYPE svg PUBLIC "-//W3C//DTD SVG 1.1//EN" "http://www.w3.org/Graphics/SVG/1.1/DTD/svg11.dtd">
<!-- Creator: CorelDRAW Home & Student X8 -->
<svg xmlns="http://www.w3.org/2000/svg" xml:space="preserve" width="100mm" height="28mm" version="1.1" style="shape-rendering:geometricPrecision; text-rendering:geometricPrecision; image-rendering:optimizeQuality; fill-rule:evenodd; clip-rule:evenodd"
viewBox="0 0 10000 2800"
 xmlns:xlink="http://www.w3.org/1999/xlink">
 <defs>
  <style type="text/css">
   <![CDATA[
    .fil0 {fill:none}
    .fil1 {fill:#FEFEFE}
    .fil2 {fill:#C7C7C7;fill-rule:nonzero}
   ]]>
  </style>
 </defs>
 <g id="Ebene_x0020_1">
  <metadata id="CorelCorpID_0Corel-Layer"/>
  <rect class="fil0" width="10000" height="2800"/>
  <path class="fil1" d="M7436 1365c-87,66 -130,150 -130,253 0,84 30,156 91,217 61,60 148,90 262,90 167,0 286,-71 355,-211 6,89 12,150 19,182l156 0c-15,-59 -23,-125 -23,-196l0 -431c0,-152 -29,-259 -87,-321 -59,-62 -158,-93 -298,-93 -262,0 -411,94 -447,281l146 25c26,-122 119,-183 279,-183 65,0 118,11 158,32 40,22 66,50 79,86 12,36 18,94 18,174 -61,-3 -106,-4 -134,-4 -209,0 -357,33 -444,99zm578 26c2,25 2,48 2,66 0,94 -30,174 -92,243 -60,69 -138,104 -234,104 -69,0 -123,-18 -160,-53 -37,-34 -56,-77 -56,-126 0,-78 35,-138 103,-179 70,-41 166,-61 291,-61 33,0 82,2 146,6z"/>
  <path class="fil2" d="M6344 2788l-75 0 -59 -172 -218 0 -53 172 -61 0 190 -587 85 0 191 587zm-149 -227l-92 -281 -91 281 183 0z"/>
  <path id="1" class="fil2" d="M6831 2492l0 304 -46 0 -20 -73c-36,51 -89,77 -161,77 -77,0 -137,-29 -179,-87 -43,-59 -65,-129 -65,-212 0,-89 23,-164 68,-223 46,-59 107,-89 186,-89 107,0 178,57 210,171l-69 16c-10,-43 -29,-75 -56,-95 -28,-20 -57,-30 -90,-30 -58,0 -100,24 -128,71 -27,46 -41,105 -41,176 0,76 16,135 46,178 31,43 73,64 126,64 41,0 75,-13 103,-41 27,-27 41,-65 41,-113 0,-8 0,-19 -1,-31l-145 0 0 -63 221 0z"/>
  <path class="fil1" d="M380 1328c0,-155 52,-233 157,-233 31,0 57,9 77,27 21,17 34,39 39,65 6,25 8,72 8,141l0 568 300 0 0 -650c0,-152 -29,-253 -88,-305 -59,-52 -136,-78 -232,-78 -52,0 -101,12 -145,36 -45,23 -90,76 -137,157l0 -172 -279 0 0 1012 300 0 0 -568z"/>
  <path class="fil1" d="M1288 1012c-92,98 -138,228 -138,389 0,108 23,201 68,279 46,77 105,136 175,176 71,41 156,61 257,61 232,0 385,-117 461,-352l-271 -20c-21,107 -80,160 -180,160 -54,0 -100,-18 -138,-55 -39,-37 -58,-92 -58,-165 0,-13 0,-29 1,-47l652 0c0,-200 -47,-346 -140,-437 -93,-92 -205,-138 -335,-138 -145,0 -263,50 -354,149zm535 254l-359 0c13,-138 76,-208 188,-208 105,0 162,70 171,208z"/>
  <polygon class="fil1" points="2172,884 2486,1896 2736,1896 2896,1245 3055,1896 3320,1896 3624,884 3393,884 3222,1506 3074,884 2803,884 2649,1502 2484,884 "/>
  <path class="fil1" d="M3895 1331c-76,31 -131,73 -165,126 -34,53 -51,112 -51,175 0,87 29,156 88,208 58,51 135,77 229,77 64,0 122,-12 172,-36 50,-24 101,-72 152,-144 0,66 5,119 14,159l290 0c-11,-38 -17,-101 -17,-189l0 -459c0,-89 -6,-151 -18,-187 -12,-35 -35,-69 -69,-102 -34,-32 -82,-56 -143,-72 -61,-16 -125,-24 -194,-24 -115,0 -218,24 -309,73 -92,48 -146,129 -164,244l275 26c12,-98 71,-148 175,-148 99,0 147,49 147,148l0 58c-199,14 -337,37 -412,67zm98 269c0,-105 105,-168 314,-188l0 91c0,64 -17,118 -53,161 -36,44 -80,66 -133,66 -41,0 -73,-13 -95,-38 -22,-26 -33,-57 -33,-92z"/>
  <path class="fil1" d="M4698 884l368 1012c-10,40 -25,71 -45,93 -20,21 -60,32 -119,32 -45,0 -93,-4 -146,-14l0 230c53,8 101,12 144,12 84,0 149,-14 197,-43 47,-29 83,-68 108,-116 25,-49 56,-127 91,-235l316 -971 -216 0 -187 602 -195 -602 -316 0z"/>
  <path class="fil1" d="M8503 1007l0 611c0,205 98,307 294,307 41,0 89,-4 145,-10l0 -126c-45,7 -86,11 -122,11 -108,0 -161,-52 -161,-157l0 -636 225 0 0 -123 -225 0 0 -269 -150 14 -6 255 -179 0 0 123 179 0z"/>
  <path class="fil1" d="M9734 1457c0,94 -31,174 -92,243 -61,69 -139,104 -234,104 -70,0 -123,-18 -160,-53 -38,-34 -56,-77 -56,-126 0,-78 34,-138 103,-179 69,-41 166,-61 290,-61 34,0 82,2 147,6 1,25 2,48 2,66zm-137 -191c-208,0 -356,33 -443,99 -87,66 -131,150 -131,253 0,84 31,156 92,217 61,60 148,90 262,90 167,0 285,-71 355,-211 6,89 12,150 18,182l156 0c-15,-59 -22,-125 -22,-196l0 -431c0,-152 -29,-259 -88,-321 -58,-62 -157,-93 -297,-93 -262,0 -412,94 -447,281l146 25c26,-122 119,-183 279,-183 65,0 118,11 158,32 40,22 66,50 78,86 13,36 19,94 19,174 -62,-3 -107,-4 -135,-4z"/>
  <path class="fil1" d="M6925 1274l0 212c0,83 -28,156 -84,217 -57,62 -121,93 -195,93 -81,0 -145,-36 -191,-107 -47,-71 -70,-174 -70,-311 0,-58 5,-110 16,-156l-143 -88c-30,77 -46,166 -46,265 0,152 38,277 115,377 76,99 173,149 292,149 143,0 249,-67 320,-201l0 172 142 0 0 -1369 -156 0 0 494c-77,-110 -176,-166 -298,-166 -106,0 -194,37 -264,110l130 81c45,-44 99,-66 161,-66 72,0 135,27 189,80 55,54 82,125 82,214z"/>
  <polygon class="fil1" points="6235,-3 6342,-3 5432,2792 5325,2792 "/>
 </g>
</svg>
